<?xml version="1.0" standalone="no"?>
<!DOCTYPE svg PUBLIC "-//W3C//DTD SVG 20010904//EN"
 "http://www.w3.org/TR/2001/REC-SVG-20010904/DTD/svg10.dtd">
<svg version="1.0" xmlns="http://www.w3.org/2000/svg"
 width="930.000000pt" height="930.000000pt" viewBox="0 0 930.000000 930.000000"
 preserveAspectRatio="xMidYMid meet">
<metadata>
Created by potrace 1.14, written by Peter Selinger 2001-2017
</metadata>
<g transform="translate(0.000000,930.000000) scale(0.100000,-0.100000)"
fill="#000000" stroke="none">
<path d="M4038 7784 c72 -58 80 -68 69 -85 -14 -22 -35 -30 -157 -58 -108 -25
-169 -60 -181 -104 -4 -16 -5 -35 -2 -43 7 -20 42 -17 50 4 6 16 22 32 34 32
3 0 5 -16 5 -35 0 -31 -4 -36 -35 -46 -61 -20 -249 -115 -283 -144 -18 -15
-46 -51 -63 -80 -87 -155 -111 -189 -158 -226 -83 -66 -113 -118 -123 -218 -3
-31 -15 -85 -25 -120 -25 -84 -25 -196 2 -297 13 -53 18 -93 14 -122 -4 -24
-2 -49 3 -55 5 -7 12 -35 15 -64 l6 -52 -52 -28 c-52 -28 -64 -49 -26 -47 18
1 20 -3 14 -30 -19 -88 -18 -104 5 -116 12 -7 35 -9 50 -6 41 8 59 -17 28 -38
-21 -15 -24 -15 -35 0 -20 27 -33 5 -33 -55 0 -76 24 -111 63 -94 l26 12 -20
-42 c-28 -62 -25 -172 6 -277 16 -53 25 -108 25 -151 0 -44 9 -96 24 -146 13
-43 29 -101 35 -128 23 -114 69 -184 122 -185 25 0 26 -2 32 -82 4 -46 7 -132
7 -191 0 -104 1 -111 29 -150 37 -54 123 -197 126 -211 1 -6 5 -18 8 -26 19
-46 39 -107 40 -122 1 -9 4 -16 8 -15 4 1 21 -16 38 -38 84 -110 179 -208 259
-270 28 -22 51 -46 52 -53 0 -7 -9 -52 -19 -100 -11 -48 -27 -139 -37 -202
-10 -69 -28 -143 -45 -185 -15 -38 -28 -65 -28 -59 -1 7 -8 15 -17 18 -11 4
-14 2 -11 -6 3 -7 8 -21 12 -30 5 -13 -2 -19 -34 -29 -33 -10 -45 -9 -72 3
-38 19 -57 15 -98 -23 -19 -17 -43 -29 -60 -29 -18 0 -40 -13 -67 -39 -28 -26
-56 -42 -91 -50 -37 -9 -53 -19 -62 -37 -6 -13 -21 -28 -34 -33 -13 -5 -38
-21 -55 -36 -20 -16 -39 -25 -48 -21 -9 4 -22 2 -28 -2 -6 -5 -24 -12 -39 -16
-15 -4 -33 -17 -39 -31 -12 -27 -61 -53 -114 -62 -20 -3 -38 -11 -40 -18 -5
-13 -33 -26 -209 -99 -106 -44 -112 -45 -178 -37 -48 5 -71 4 -78 -5 -5 -6
-40 -13 -77 -16 -53 -3 -72 -8 -90 -26 -12 -12 -28 -22 -35 -22 -18 0 -53 -39
-62 -70 -4 -14 -17 -38 -29 -55 -26 -37 -32 -75 -12 -75 33 0 24 -20 -17 -39
-25 -11 -48 -28 -51 -37 -8 -21 19 -64 39 -64 9 0 15 -10 16 -22 4 -87 16
-141 29 -133 6 3 14 -4 19 -17 5 -13 24 -40 42 -61 25 -28 35 -34 46 -26 10 9
13 7 13 -7 0 -14 7 -11 35 16 34 33 37 34 68 22 38 -15 34 -15 74 -13 19 1 41
10 52 22 14 15 26 19 38 14 35 -15 93 -22 99 -13 3 5 23 7 44 3 23 -4 47 -2
60 5 17 9 32 9 64 0 36 -10 49 -9 81 5 22 8 42 20 45 26 4 6 29 -1 64 -16 31
-14 54 -29 51 -34 -3 -5 -1 -12 5 -16 5 -3 10 -2 10 4 0 5 15 10 33 10 52 -1
178 21 211 35 17 7 51 19 76 26 25 6 60 18 78 26 18 8 50 14 71 14 21 0 41 3
44 7 4 4 46 8 94 11 67 3 90 0 98 -11 5 -7 35 -20 65 -27 30 -7 61 -18 69 -24
8 -6 25 -9 38 -8 13 2 36 -4 50 -13 14 -10 72 -26 127 -35 110 -20 178 -42
184 -59 2 -6 17 -11 33 -11 17 0 32 -6 35 -15 4 -8 17 -15 31 -15 13 0 34 -5
46 -11 16 -9 22 -9 25 -1 2 8 9 9 21 2 10 -5 21 -7 23 -4 3 3 27 0 52 -7 28
-7 51 -8 56 -3 5 5 46 6 92 2 151 -12 242 -8 390 16 80 14 164 30 187 36 22 6
61 11 86 12 26 0 45 5 45 12 0 6 4 5 9 -3 10 -16 114 -23 151 -9 14 5 33 18
43 29 10 10 31 19 47 19 28 0 60 22 60 41 0 11 66 40 209 94 58 21 119 51 135
65 17 14 51 32 76 39 42 12 94 44 86 52 -2 2 19 5 47 6 55 3 111 -13 101 -28
-3 -5 6 -9 21 -9 14 0 33 -4 43 -10 9 -5 43 -12 74 -15 32 -4 60 -11 63 -16 4
-5 19 -9 36 -9 18 0 28 -5 26 -12 -1 -8 7 -12 23 -11 14 2 34 3 45 4 26 1 123
-20 155 -34 14 -6 29 -10 33 -9 4 2 27 -4 50 -12 27 -9 49 -11 67 -5 14 5 91
6 180 1 85 -5 189 -5 230 -2 83 7 143 28 135 47 -2 7 2 13 10 13 8 0 15 8 15
18 0 33 33 42 89 24 47 -15 53 -15 67 0 25 25 9 50 -54 87 -41 24 -57 40 -57
55 0 18 6 21 40 21 34 0 40 3 43 22 3 17 -7 29 -41 50 -86 54 -83 51 -68 61 8
6 11 16 8 24 -12 33 -306 183 -721 369 -194 87 -242 115 -330 189 -22 20 -66
49 -96 65 -75 39 -79 41 -125 55 -22 6 -55 18 -73 27 -19 8 -36 12 -39 9 -3
-3 -19 6 -35 19 -16 14 -38 25 -49 25 -10 0 -19 5 -19 10 0 6 -7 10 -15 10 -8
0 -34 9 -58 19 -139 63 -163 71 -247 85 -35 6 -113 36 -126 50 -10 9 -36 133
-73 346 -5 31 -11 61 -13 69 -2 7 12 22 31 33 18 10 39 25 47 32 7 8 29 24 48
36 84 51 184 253 242 485 19 77 37 149 40 160 9 36 34 289 34 343 0 51 1 52
29 52 34 0 62 33 81 95 11 39 10 138 -6 349 -4 50 -2 82 5 89 6 6 11 25 11 42
0 16 10 59 21 95 15 47 23 108 29 225 5 88 16 192 25 230 18 80 21 237 6 306
-8 36 -7 58 4 95 22 74 27 78 55 49 32 -34 47 -32 58 8 17 60 -8 137 -43 137
-7 0 -15 11 -17 25 -5 21 -2 25 13 20 30 -10 23 21 -15 71 -19 24 -44 75 -55
112 -28 91 -58 141 -107 177 -23 16 -51 50 -63 74 -25 50 -29 46 66 88 42 19
63 34 63 46 0 20 -1 20 -32 8 -13 -4 -43 -11 -68 -15 l-45 -7 35 31 c59 51
133 98 178 111 48 14 56 29 15 29 -37 -1 -104 -32 -166 -77 l-50 -37 6 33 c4
19 7 37 7 42 0 5 7 9 15 9 8 0 15 5 15 10 0 6 -8 10 -18 10 -19 0 -42 18 -42
32 0 4 6 8 14 8 8 0 18 5 22 12 5 8 -2 9 -25 5 -24 -5 -37 -2 -56 15 -28 24
-24 38 11 38 37 0 27 32 -14 42 -21 6 -40 21 -56 46 -37 58 -96 109 -158 137
-31 14 -62 32 -68 41 -7 8 -21 12 -31 9 -10 -3 -40 1 -66 10 -78 27 -173 36
-453 45 -146 4 -278 8 -295 9 -28 1 -26 3 30 36 l60 34 -129 1 c-115 0 -127
-2 -122 -16 12 -32 -22 -54 -82 -54 l-56 0 43 33 42 32 -61 3 c-61 3 -62 2
-110 -42 -65 -61 -87 -61 -53 -1 l25 45 -32 0 c-28 0 -33 -6 -55 -52 -23 -49
-27 -53 -89 -74 -36 -12 -82 -25 -103 -28 l-38 -7 30 25 c41 33 24 49 -56 52
-57 1 -64 4 -103 43 -40 39 -44 41 -105 41 l-64 0 81 -66z m207 -54 c-3 -5
-10 -10 -16 -10 -5 0 -9 5 -9 10 0 6 7 10 16 10 8 0 12 -4 9 -10z m660 -64
c-31 -14 -45 -12 -45 5 0 5 17 9 38 9 l37 -1 -30 -13z m670 -36 l49 -17 -27
-17 c-34 -23 -112 -15 -120 12 -3 9 -8 25 -12 34 -6 16 -3 17 26 11 19 -3 56
-14 84 -23z m-380 10 c-7 -12 -42 -13 -48 -2 -3 4 8 8 24 9 17 1 27 -2 24 -7z
m-778 -6 c-3 -3 -12 -4 -19 -1 -8 3 -5 6 6 6 11 1 17 -2 13 -5z m693 -8 c0 -3
-4 -8 -10 -11 -5 -3 -10 -1 -10 4 0 6 5 11 10 11 6 0 10 -2 10 -4z m848 -61
c26 -24 44 -46 41 -49 -10 -11 -34 3 -44 26 -6 12 -21 25 -34 28 -13 3 -30 15
-38 27 -13 20 -13 21 7 16 11 -3 42 -25 68 -48z m-925 14 c-36 -15 -47 -10
-28 11 14 16 21 18 32 8 13 -10 12 -13 -4 -19z m-913 13 c0 -5 -11 -19 -25
-32 -28 -26 -33 -16 -9 18 15 22 34 30 34 14z m-92 -24 c-5 -15 -68 -24 -68
-9 0 9 21 16 58 20 8 0 12 -5 10 -11z m174 0 c-7 -7 -12 -20 -12 -30 0 -12 -8
-18 -23 -18 -40 0 -40 13 0 37 42 26 53 29 35 11z m134 -63 c-10 -8 -23 -12
-29 -8 -5 3 1 12 14 19 30 15 41 7 15 -11z m1114 -1 c0 -8 -4 -12 -10 -9 -5 3
-10 10 -10 16 0 5 5 9 10 9 6 0 10 -7 10 -16z m-1500 -4 c12 -8 11 -10 -7 -11
-13 -1 -28 -2 -35 -3 -6 -1 -13 5 -15 12 -5 14 35 16 57 2z m1874 -15 c20 -8
36 -22 36 -29 0 -8 3 -21 6 -30 5 -13 2 -14 -24 -5 -36 12 -72 45 -72 64 0 19
9 19 54 0z m126 -80 c10 -12 10 -15 -4 -15 -9 0 -16 7 -16 15 0 8 2 15 4 15 2
0 9 -7 16 -15z m-2160 -45 c-11 -16 -25 -32 -30 -35 -10 -6 -40 4 -40 14 0 6
74 48 88 50 2 1 -6 -12 -18 -29z m2018 -7 c6 -19 -25 -16 -32 3 -4 11 -1 14
11 12 9 -2 18 -9 21 -15z m-2123 -64 c-4 -5 -18 -15 -32 -20 -16 -6 -23 -15
-20 -24 8 -18 -59 -85 -84 -85 -10 0 -19 4 -19 9 0 14 98 105 128 118 34 15
35 15 27 2z m-140 -169 c-3 -5 -12 -7 -20 -3 -21 7 -19 13 6 13 11 0 18 -4 14
-10z m2605 -71 c0 -5 -7 -6 -15 -3 -8 4 -15 13 -15 21 0 13 3 13 15 3 8 -7 15
-16 15 -21z m-1845 -32 c39 -8 104 -30 145 -49 214 -102 256 -118 321 -118 20
0 56 -7 79 -15 58 -21 103 -19 153 6 108 55 137 69 141 69 2 0 1 -11 -2 -25
-7 -38 14 -30 40 16 28 50 73 78 110 70 l27 -6 -29 -44 c-34 -49 -38 -79 -14
-88 12 -4 24 3 38 23 11 16 38 48 60 72 38 41 41 43 85 37 108 -15 222 -38
301 -61 75 -23 91 -32 133 -76 37 -39 45 -54 36 -64 -16 -19 -3 -100 36 -215
18 -53 30 -100 27 -104 -4 -4 -10 -46 -13 -93 -4 -48 -12 -124 -19 -169 -11
-72 -11 -85 2 -100 11 -13 18 -58 24 -168 12 -215 11 -265 -10 -300 -14 -25
-16 -26 -12 -7 3 15 0 22 -7 19 -19 -6 -29 -78 -22 -167 4 -47 8 -110 10 -140
2 -30 4 -59 5 -65 0 -5 14 6 30 25 l30 34 0 -151 0 -151 26 -17 c35 -22 52
-13 59 32 10 64 26 115 41 130 10 10 14 39 14 95 0 88 9 96 46 41 20 -30 20
-35 7 -140 -7 -59 -18 -143 -23 -186 -12 -101 -29 -134 -30 -56 0 35 -5 61
-13 68 -12 9 -13 -6 -9 -88 2 -55 -1 -134 -7 -178 -6 -43 -15 -114 -21 -158
-11 -98 -81 -388 -104 -433 -9 -18 -22 -30 -27 -26 -7 4 -9 -1 -5 -14 10 -30
-56 -160 -106 -211 -63 -64 -205 -154 -363 -233 -77 -38 -186 -93 -242 -121
-117 -60 -154 -77 -165 -77 -4 0 -31 -11 -60 -25 -28 -13 -79 -29 -112 -35
-34 -6 -78 -17 -99 -25 -22 -9 -72 -15 -123 -15 -86 0 -87 0 -173 51 -110 64
-104 61 -251 135 -69 35 -141 78 -160 95 -19 18 -37 31 -38 29 -7 -5 -128 89
-196 153 -54 51 -68 69 -63 86 3 14 -1 26 -15 35 -23 16 -59 64 -39 51 10 -6
11 -3 2 13 -6 11 -14 22 -19 24 -18 7 -86 132 -74 136 7 2 12 8 12 14 0 6 -6
8 -14 5 -8 -3 -22 3 -31 13 -18 20 -107 230 -96 228 20 -2 22 4 5 16 -17 13
-20 36 -31 203 -6 103 -17 233 -23 288 -14 117 -7 355 11 366 19 12 23 104 6
141 -9 20 -17 80 -21 148 -4 63 -14 155 -23 204 -16 90 -12 208 8 232 5 6 17
87 28 180 10 93 26 186 34 207 63 150 265 351 524 523 78 52 145 99 148 104 8
13 17 13 100 -3z m1844 -61 c7 -8 11 -20 9 -26 -4 -12 -58 36 -58 51 0 12 31
-4 49 -25z m-1118 3 c-18 -11 -35 -18 -38 -15 -5 5 46 35 62 36 6 0 -5 -9 -24
-21z m149 11 c0 -12 -43 -31 -85 -36 -29 -4 -29 -4 -8 11 43 30 93 43 93 25z
m-490 -21 c0 -18 -4 -20 -26 -15 -15 4 -41 13 -58 21 -31 13 -31 13 27 14 52
1 57 -1 57 -20z m-1256 -36 c-7 -21 -13 -48 -14 -60 0 -30 -10 -53 -22 -53
-13 0 -4 85 13 123 20 44 39 35 23 -10z m1533 10 c-3 -3 -11 -2 -17 2 -9 6 -9
10 1 16 14 8 27 -7 16 -18z m-1628 -32 c-18 -79 -45 -136 -68 -139 -24 -4 -28
20 -11 77 9 32 65 101 81 101 4 0 3 -18 -2 -39z m1505 22 c10 -10 54 -15 136
-15 l65 1 -37 -20 c-35 -18 -41 -18 -114 -4 -84 16 -89 18 -79 34 7 13 19 14
29 4z m-1468 -229 c-20 -59 -20 -74 -1 -74 22 0 8 -26 -21 -39 -21 -9 -25 -16
-19 -40 7 -33 -21 -101 -42 -101 -7 0 -13 -9 -13 -19 0 -11 -4 -22 -8 -25 -24
-15 10 262 37 309 10 17 21 43 24 57 l7 27 26 -24 c26 -24 26 -24 10 -71z
m2873 17 l-1 -56 -8 50 c-4 28 -11 59 -16 70 -7 18 -6 18 9 6 13 -10 17 -28
16 -70z m-2779 50 c0 -6 -4 -13 -10 -16 -5 -3 -10 1 -10 9 0 9 5 16 10 16 6 0
10 -4 10 -9z m2520 -45 c28 -41 30 -51 29 -128 -1 -92 -2 -90 -40 57 -11 44
-23 88 -25 98 -9 28 3 20 36 -27z m-2738 -8 c-7 -7 -12 -8 -12 -2 0 14 12 26
19 19 2 -3 -1 -11 -7 -17z m-1 -89 c-6 -16 -10 -18 -10 -7 -1 22 12 55 16 42
2 -6 -1 -22 -6 -35z m3076 -41 c-3 -8 -6 -5 -6 6 -1 11 2 17 5 13 3 -3 4 -12
1 -19z m113 -90 l0 -52 -24 34 c-25 37 -21 70 9 70 11 0 15 -13 15 -52z
m-3063 -180 c-2 -13 -4 -3 -4 22 0 25 2 35 4 23 2 -13 2 -33 0 -45z m2940
-165 c-3 -10 -5 -2 -5 17 0 19 2 27 5 18 2 -10 2 -26 0 -35z m-2954 13 c4 -9
-8 -25 -29 -41 -32 -25 -34 -25 -34 -6 0 14 7 21 20 21 13 0 20 7 20 20 0 23
15 27 23 6z m2701 -57 c0 -19 -5 -52 -9 -74 l-8 -40 -7 42 c-8 55 -1 115 14
110 6 -2 11 -19 10 -38z m241 -39 c-4 -28 -9 -49 -12 -47 -2 3 -1 28 3 56 4
28 9 50 11 47 3 -3 2 -28 -2 -56z m-3022 -27 c16 -39 32 -102 24 -93 -12 12
-55 130 -48 130 4 0 15 -17 24 -37z m-33 -75 c10 -33 -23 -68 -64 -68 -24 0
-27 3 -23 23 4 12 9 42 13 67 3 25 13 51 22 57 13 11 18 8 30 -20 8 -17 18
-44 22 -59z m-6 -182 c-7 -17 -34 -23 -34 -6 0 9 32 31 38 26 1 -2 0 -11 -4
-20z m81 -6 c3 -5 2 -10 -4 -10 -5 0 -13 5 -16 10 -3 6 -2 10 4 10 5 0 13 -4
16 -10z m-85 -50 c0 -4 -7 -13 -16 -21 -13 -10 -17 -10 -25 2 -16 25 -10 36
16 31 14 -2 25 -8 25 -12z m3041 -105 l-9 -40 -1 35 c0 19 3 53 7 75 l7 40 3
-35 c2 -19 -1 -53 -7 -75z m-2931 81 c0 -9 -8 -12 -25 -8 -37 7 -41 22 -6 22
20 0 31 -5 31 -14z m19 -80 c5 -17 12 -61 15 -97 3 -36 12 -89 20 -119 13 -48
12 -56 -5 -94 -10 -22 -19 -53 -19 -68 0 -29 34 -73 49 -64 9 6 20 -118 22
-229 0 -38 4 -92 9 -120 4 -27 6 -52 5 -53 -2 -2 -20 4 -40 13 -19 10 -34 20
-31 22 2 2 -2 16 -9 30 -8 15 -12 30 -9 35 3 4 0 8 -7 8 -6 0 -9 8 -6 20 3 11
2 18 -3 15 -9 -5 -24 64 -16 72 3 3 -2 22 -10 42 -8 20 -13 47 -10 61 3 14 3
19 -1 11 -4 -11 -7 -11 -14 0 -4 7 -3 22 3 32 7 14 7 17 -1 13 -6 -4 -11 5
-11 26 -3 105 -6 146 -10 142 -12 -13 -41 99 -46 180 -7 101 4 146 35 146 10
0 21 7 25 15 9 24 54 -2 65 -39z m76 -206 c5 -30 4 -42 -3 -35 -5 6 -13 35
-16 65 -7 64 7 41 19 -30z m2773 -46 c1 -46 1 -46 -18 -29 -25 22 -25 44 -2
61 9 7 18 14 18 14 1 0 2 -21 2 -46z m-225 -19 c-7 -21 -13 -19 -13 6 0 11 4
18 10 14 5 -3 7 -12 3 -20z m-2554 -114 c1 -38 -1 -42 -14 -31 -16 14 -19 39
-8 91 7 33 7 33 14 9 4 -14 7 -45 8 -69z m2806 -148 c-8 -132 -12 -157 -34
-182 -18 -21 -38 -30 -27 -12 5 8 32 146 51 254 11 66 15 39 10 -60z m-542
-1475 c4 -51 9 -109 12 -128 4 -31 3 -30 -11 10 -18 53 -32 226 -17 217 5 -4
13 -48 16 -99z m-45 7 c2 -91 18 -168 59 -274 13 -36 26 -75 27 -86 2 -11 9
-30 16 -42 13 -20 11 -27 -22 -75 -19 -29 -42 -64 -49 -79 -34 -62 -55 -89
-71 -89 -10 0 -29 -18 -43 -40 -14 -22 -44 -52 -67 -67 -23 -16 -50 -36 -60
-45 -10 -10 -26 -18 -35 -18 -10 0 -31 -17 -48 -37 -72 -86 -114 -121 -181
-144 -46 -16 -70 -31 -77 -46 -6 -13 -16 -23 -24 -23 -7 0 -13 -4 -13 -9 0 -5
-13 -11 -30 -14 -16 -4 -30 -13 -30 -20 0 -8 -11 -20 -25 -27 -21 -11 -35 -10
-92 5 -37 10 -120 30 -183 44 -75 18 -148 43 -212 74 -53 26 -101 47 -106 47
-36 0 -229 109 -237 133 -2 7 -6 24 -9 40 -5 19 -13 27 -28 27 -34 0 -58 28
-52 59 7 32 -16 56 -46 48 -11 -3 -22 -2 -24 1 -6 11 31 251 47 307 46 161 67
244 67 272 0 27 3 31 24 29 13 -2 57 -28 97 -58 132 -99 249 -159 357 -183 99
-22 174 -21 222 4 21 11 66 25 101 31 60 11 106 28 194 71 22 10 45 19 52 19
6 0 74 33 150 73 154 81 335 174 344 176 3 0 6 -37 7 -84z m-1570 -54 c4 -22
-38 -175 -45 -167 -10 9 21 196 31 193 6 -2 12 -13 14 -26z m287 -119 c-3 -3
-11 0 -18 7 -9 10 -8 11 6 5 10 -3 15 -9 12 -12z m150 -80 c-5 -5 -83 36 -91
49 -4 7 16 -1 44 -17 28 -16 49 -30 47 -32z m1540 -162 c3 -5 1 -10 -4 -10 -6
0 -11 5 -11 10 0 6 2 10 4 10 3 0 8 -4 11 -10z m75 -34 c8 -3 4 -4 -10 0 -14
3 -30 6 -37 6 -7 1 -10 5 -7 10 3 4 13 4 22 -1 9 -4 24 -11 32 -15z m45 -17
c11 -17 -1 -21 -15 -4 -8 9 -8 15 -2 15 6 0 14 -5 17 -11z"/>
<path d="M5330 6051 c-8 -5 -36 -12 -62 -15 -26 -4 -50 -11 -53 -17 -4 -5 -13
-9 -22 -9 -31 0 -84 -33 -114 -72 -30 -37 -34 -62 -7 -41 7 6 23 13 35 16 22
5 22 4 -4 -29 -39 -52 -21 -52 27 0 41 44 72 57 85 36 9 -15 25 -12 25 4 0 21
78 28 106 9 22 -14 24 -14 30 1 4 9 18 16 34 16 16 0 32 5 35 10 8 13 52 13
60 1 8 -14 122 -92 187 -129 62 -34 121 -45 98 -17 -7 8 -17 15 -22 15 -18 0
-132 73 -206 133 -53 42 -78 56 -93 52 -11 -4 -30 2 -47 14 -35 24 -72 34 -92
22z m43 -28 c-7 -2 -21 -2 -30 0 -10 3 -4 5 12 5 17 0 24 -2 18 -5z"/>
<path d="M4190 5923 c0 -24 -111 -59 -140 -43 -41 22 -76 11 -139 -41 -33 -28
-65 -48 -69 -45 -5 3 -15 -5 -22 -19 -7 -13 -24 -29 -39 -35 -39 -16 -105 -74
-100 -89 3 -8 22 2 56 28 50 40 90 59 45 21 -17 -14 -22 -25 -17 -40 3 -11 10
-20 15 -20 4 0 36 21 70 48 86 66 167 112 199 112 16 0 50 7 77 16 83 26 165
33 197 17 20 -10 32 -11 47 -3 26 14 25 27 -2 41 -13 7 -33 23 -45 36 -25 27
-45 29 -63 8 -16 -19 -50 -20 -50 -1 0 8 -4 18 -10 21 -5 3 -10 -2 -10 -12z
m-166 -62 c3 -5 -20 -24 -52 -43 -31 -19 -70 -43 -87 -53 l-30 -19 30 33 c30
32 111 91 126 91 4 0 10 -4 13 -9z"/>
<path d="M5320 5910 c0 -5 5 -10 10 -10 6 0 10 5 10 10 0 6 -4 10 -10 10 -5 0
-10 -4 -10 -10z"/>
<path d="M5177 5811 c-89 -20 -132 -46 -57 -35 120 18 174 30 174 39 1 16 -34
15 -117 -4z"/>
<path d="M4887 5803 c-21 -76 -17 -183 7 -183 9 0 12 28 12 100 -1 93 -8 124
-19 83z"/>
<path d="M4578 5726 c-3 -91 2 -114 21 -102 17 11 14 148 -3 172 -13 17 -15
10 -18 -70z"/>
<path d="M5410 5801 c-8 -5 -43 -11 -76 -14 -48 -4 -86 -17 -165 -56 -57 -28
-105 -47 -107 -41 -2 5 -11 10 -19 10 -11 0 -14 -7 -11 -25 3 -14 1 -28 -4
-31 -13 -8 2 -26 17 -20 7 2 16 -2 19 -10 9 -24 29 -16 22 9 -5 21 3 29 69 67
42 23 92 48 113 56 39 14 105 19 86 6 -17 -11 -34 -48 -34 -76 0 -32 43 -66
85 -66 43 0 98 58 93 98 -4 37 21 39 72 7 22 -14 51 -30 63 -35 12 -6 32 -17
45 -26 27 -20 30 -2 3 23 -18 16 -120 72 -161 88 -8 3 -26 12 -40 20 -16 9
-28 11 -34 5 -16 -16 -30 -11 -16 5 14 16 4 19 -20 6z"/>
<path d="M4118 5732 c-16 -2 -28 -10 -28 -18 0 -11 17 -14 78 -14 49 -1 97 -8
132 -20 59 -20 75 -18 44 5 -38 29 -163 55 -226 47z"/>
<path d="M3998 5676 c-70 -25 -248 -145 -248 -166 0 -23 33 -7 119 58 55 42
130 80 170 87 l30 5 -6 -50 c-7 -56 9 -83 53 -94 13 -4 24 -13 24 -21 0 -20
106 -21 152 -1 18 8 52 22 76 32 56 23 39 40 -20 19 -35 -11 -52 -12 -77 -4
-27 9 -29 13 -20 31 6 11 9 33 7 47 -4 27 -3 28 36 20 23 -5 57 -13 76 -19 42
-12 40 -12 40 -1 0 12 -108 46 -185 59 -88 14 -185 14 -227 -2z m225 -163 c-7
-2 -19 -2 -25 0 -7 3 -2 5 12 5 14 0 19 -2 13 -5z"/>
<path d="M4716 5662 c-2 -4 -6 -41 -7 -82 -1 -40 -10 -112 -19 -159 -45 -227
-61 -326 -70 -441 -6 -69 -13 -159 -17 -200 -6 -67 -5 -74 10 -62 10 9 17 10
22 2 13 -21 347 -2 365 21 3 3 17 9 33 13 33 8 36 26 4 26 -12 0 -72 -9 -132
-19 -61 -11 -148 -22 -194 -24 l-83 -5 6 46 c3 26 11 94 16 152 12 111 20 169
44 315 38 228 46 287 46 348 0 59 -11 90 -24 69z"/>
<path d="M5147 5633 c-10 -3 -16 -10 -14 -16 2 -8 37 -13 95 -15 76 -2 92 0
92 12 0 17 -81 33 -102 20 -19 -12 -38 -14 -38 -3 0 9 -4 10 -33 2z"/>
<path d="M5023 4986 c10 -8 38 -17 62 -21 48 -7 65 -25 65 -69 0 -16 6 -26 15
-26 17 0 20 36 5 75 -11 30 -34 40 -110 48 -48 5 -53 4 -37 -7z"/>
<path d="M4495 4954 c-9 -14 -22 -43 -30 -64 -12 -33 -11 -41 1 -57 14 -17 15
-16 9 10 -4 20 -2 27 10 27 8 0 15 8 15 19 0 10 7 35 15 55 18 42 5 48 -20 10z"/>
<path d="M4836 4582 c-9 -15 12 -113 30 -139 21 -33 37 -19 19 17 -19 37 -19
63 0 30 13 -22 14 -23 14 -5 0 27 -25 61 -33 43 -3 -7 -3 -1 0 13 5 26 -19 59
-30 41z"/>
<path d="M4700 4550 c0 -16 -5 -52 -11 -80 -11 -52 -7 -72 11 -54 14 14 30
116 23 143 -8 31 -23 25 -23 -9z"/>
<path d="M5490 4374 c-8 -2 -195 -5 -415 -6 l-400 -3 -65 -32 c-49 -25 -92
-36 -171 -47 -90 -13 -127 -21 -217 -52 -11 -3 -10 -7 3 -20 15 -15 21 -15 73
0 31 8 102 23 156 31 55 9 125 26 155 37 46 18 88 23 236 28 408 15 721 33
729 41 5 5 -2 13 -18 19 -28 10 -39 11 -66 4z"/>
<path d="M4905 4214 c-31 -19 -54 -24 -107 -24 -37 0 -78 4 -92 10 -16 6 -27
6 -31 0 -16 -26 150 -50 209 -30 35 11 76 45 76 62 0 12 -11 9 -55 -18z"/>
<path d="M3330 5051 c0 -10 19 -25 25 -20 1 2 -3 10 -11 17 -8 7 -14 8 -14 3z"/>
<path d="M3350 4960 c0 -5 5 -10 11 -10 5 0 7 5 4 10 -3 6 -8 10 -11 10 -2 0
-4 -4 -4 -10z"/>
<path d="M3391 4834 c0 -11 3 -14 6 -6 3 7 2 16 -1 19 -3 4 -6 -2 -5 -13z"/>
<path d="M2850 5836 c0 -9 7 -16 16 -16 17 0 14 22 -4 28 -7 2 -12 -3 -12 -12z"/>
<path d="M2885 5710 c-3 -5 -1 -10 4 -10 6 0 11 5 11 10 0 6 -2 10 -4 10 -3 0
-8 -4 -11 -10z"/>
<path d="M2915 5710 c-4 -6 -18 -15 -31 -20 -30 -12 -33 -50 -4 -57 11 -3 17
-9 14 -14 -6 -10 62 -79 77 -79 5 0 9 7 9 15 0 8 4 15 9 15 5 0 14 13 19 29 8
22 7 34 -3 48 -7 10 -17 14 -21 10 -5 -4 -15 7 -24 24 -16 35 -34 47 -45 29z"/>
<path d="M2887 5175 c-14 -20 -16 -29 -7 -45 6 -12 9 -33 6 -48 -3 -15 -2 -33
3 -41 6 -9 5 -23 -2 -38 -12 -26 -27 -31 -27 -8 0 8 -5 15 -11 15 -6 0 -9 -9
-6 -20 3 -13 0 -20 -9 -20 -22 0 -16 -15 12 -30 38 -21 47 -44 25 -64 -16 -15
-19 -14 -39 4 -16 15 -35 20 -76 20 -30 0 -58 -4 -61 -10 -3 -5 -14 -10 -24
-10 -20 0 -61 -40 -61 -59 0 -7 -18 -30 -39 -51 -22 -22 -42 -48 -46 -59 -3
-11 -17 -29 -31 -40 -26 -21 -32 -36 -10 -28 8 3 21 -2 30 -12 15 -17 16 -32
4 -81 -2 -8 11 -21 30 -31 18 -9 28 -19 21 -21 -18 -6 10 -46 38 -53 26 -6 32
-25 8 -25 -8 0 -15 -4 -15 -10 0 -30 54 4 69 43 7 19 18 27 34 27 30 0 65 33
84 78 18 43 36 62 60 62 32 0 48 16 35 33 -10 12 -8 16 10 20 29 8 43 -6 23
-23 -8 -7 -15 -21 -15 -31 0 -11 -4 -19 -9 -19 -17 0 -21 -33 -6 -50 18 -20
19 -78 3 -131 -10 -36 -9 -40 15 -63 16 -15 24 -31 21 -43 -3 -11 3 -26 15
-37 12 -11 21 -30 21 -43 0 -13 11 -39 25 -57 14 -18 25 -40 25 -48 0 -21 29
-88 38 -88 4 0 13 -9 20 -21 10 -16 11 -24 1 -35 -6 -8 -10 -15 -8 -17 35 -20
52 -27 81 -32 31 -6 38 -3 56 22 11 15 21 37 23 48 3 11 11 21 20 23 12 2 14
-5 11 -32 -3 -27 1 -40 22 -60 28 -29 66 -35 66 -11 0 18 26 20 33 3 4 -10 6
-10 6 0 1 6 8 12 16 12 10 0 15 10 15 28 0 15 5 33 12 40 7 7 9 12 4 12 -4 0
3 15 16 32 16 24 23 47 23 86 1 47 -1 53 -22 58 -13 4 -33 4 -44 1 -18 -5 -20
-2 -15 21 5 20 4 23 -4 12 -8 -13 -11 -11 -16 8 -8 30 -24 10 -24 -30 0 -16
-4 -28 -9 -28 -6 0 -7 16 -3 38 8 43 7 93 -3 139 -9 40 -63 96 -87 89 -10 -2
-21 0 -24 5 -3 5 -15 9 -27 10 -15 0 -17 2 -7 6 8 3 23 14 33 24 14 15 15 19
3 19 -8 0 -37 25 -64 55 -36 39 -58 55 -76 55 -31 0 -39 13 -42 68 -1 25 -7
48 -14 52 -10 6 -10 15 0 44 13 40 7 141 -12 188 -8 22 -6 34 9 60 35 58 0
130 -76 156 -19 7 -34 12 -35 12 -1 0 -9 -12 -19 -25z m13 -221 c0 -8 -4 -12
-10 -9 -5 3 -10 10 -10 16 0 5 5 9 10 9 6 0 10 -7 10 -16z m110 -280 c0 -32
-4 -44 -15 -44 -16 0 -21 52 -9 84 11 28 24 6 24 -40z m55 -113 c3 -5 1 -12
-5 -16 -5 -3 -10 1 -10 9 0 18 6 21 15 7z m-69 -50 c11 9 16 6 24 -16 5 -14
10 -30 10 -35 0 -5 7 -13 16 -18 9 -5 15 -15 12 -23 -3 -10 -13 -5 -34 17 -46
48 -63 72 -56 79 4 3 8 1 10 -5 3 -8 8 -8 18 1z m341 -363 c-3 -8 -6 -5 -6 6
-1 11 2 17 5 13 3 -3 4 -12 1 -19z"/>
<path d="M3220 4480 c0 -6 7 -10 15 -10 8 0 15 2 15 4 0 2 -7 6 -15 10 -8 3
-15 1 -15 -4z"/>
<path d="M3559 4139 c5 -6 7 -19 4 -28 -5 -13 -3 -14 8 -3 11 10 10 15 -4 27
-9 8 -13 10 -8 4z"/>
<path d="M3510 4115 c0 -8 4 -15 10 -15 5 0 7 7 4 15 -4 8 -8 15 -10 15 -2 0
-4 -7 -4 -15z"/>
<path d="M3595 4110 c-3 -5 -2 -10 4 -10 5 0 13 5 16 10 3 6 2 10 -4 10 -5 0
-13 -4 -16 -10z"/>
<path d="M3540 4053 c0 -21 -5 -33 -17 -35 -15 -3 -15 -4 0 -17 15 -12 17 -11
17 3 0 9 7 16 15 16 19 0 19 21 0 46 -14 18 -14 17 -15 -13z"/>
<path d="M3630 4061 c0 -6 4 -13 10 -16 6 -3 7 1 4 9 -7 18 -14 21 -14 7z"/>
<path d="M3645 3979 c-4 -12 -3 -25 2 -29 4 -5 8 4 9 21 1 34 -2 37 -11 8z"/>
<path d="M3140 3899 c0 -5 5 -7 10 -4 6 3 10 8 10 11 0 2 -4 4 -10 4 -5 0 -10
-5 -10 -11z"/>
<path d="M3707 3871 c-4 -17 -3 -21 5 -13 5 5 8 16 6 23 -3 8 -7 3 -11 -10z"/>
<path d="M3460 3786 c-19 -6 -45 -18 -58 -27 l-23 -16 28 -30 c16 -17 29 -43
30 -59 0 -15 6 -30 12 -32 6 -2 11 -10 11 -17 0 -14 37 -28 83 -31 16 -1 38
-12 48 -23 11 -12 25 -21 30 -21 21 0 79 -32 79 -44 0 -6 -11 -23 -25 -38 -19
-20 -27 -43 -31 -87 -6 -54 -9 -61 -35 -70 -21 -7 -26 -14 -22 -30 4 -15 1
-21 -11 -21 -20 0 -21 27 -1 46 17 17 21 94 5 94 -5 0 -10 20 -10 44 0 25 5
48 10 51 15 9 12 25 -5 25 -8 0 -15 -4 -15 -10 0 -5 -4 -10 -10 -10 -5 0 -10
6 -10 14 0 7 -7 19 -15 26 -8 7 -13 16 -10 20 7 11 -43 42 -56 34 -12 -7 -49
24 -49 41 0 7 -17 12 -42 12 -26 0 -32 -2 -15 -4 50 -8 30 -26 -23 -21 -50 5
-77 -6 -45 -18 13 -5 14 -9 4 -15 -20 -12 27 -49 62 -49 18 0 32 -7 39 -19 16
-31 12 -39 -25 -51 -19 -6 -40 -21 -46 -32 -8 -15 -13 -17 -19 -8 -5 8 -24 10
-65 5 -44 -6 -59 -12 -62 -26 -3 -11 -9 -19 -13 -19 -4 0 -17 -18 -28 -39 -18
-34 -19 -41 -6 -51 11 -10 14 -10 14 0 0 9 5 8 18 -3 10 -10 28 -17 40 -17 12
0 22 -5 22 -11 0 -6 9 -8 20 -5 11 3 29 9 40 12 15 4 23 -3 35 -33 9 -21 13
-48 10 -60 -4 -18 -1 -23 14 -23 11 0 21 -5 23 -12 5 -14 111 -12 116 3 2 5 9
9 16 9 8 0 25 11 39 26 l25 25 14 -28 c8 -16 20 -26 29 -24 8 3 29 4 48 3 29
-2 40 4 65 35 17 21 30 41 28 46 -4 13 21 77 30 77 14 0 8 71 -7 86 -19 19
-20 50 -2 57 10 4 12 18 6 59 -4 29 -8 76 -8 104 -1 36 -7 59 -22 78 -23 29
-85 60 -106 52 -7 -3 -13 -1 -13 5 0 17 -38 -9 -45 -31 -4 -14 -15 -20 -33
-20 -54 0 -59 14 -36 93 6 19 3 19 -46 3z"/>
<path d="M3620 3780 c0 -5 5 -10 11 -10 5 0 7 5 4 10 -3 6 -8 10 -11 10 -2 0
-4 -4 -4 -10z"/>
</g>
</svg>
